<svg width="524" height="814" viewBox="0 0 524 814" fill="none" xmlns="http://www.w3.org/2000/svg">
<path fill-rule="evenodd" clip-rule="evenodd" d="M314.896 1.10483C301.583 4.20183 289.64 9.26482 277.929 16.7778C272.503 20.2588 269.896 22.5478 269.896 23.8338C269.896 24.8808 270.172 25.7378 270.51 25.7378C270.848 25.7378 274.34 23.7328 278.272 21.2828C288.38 14.9828 298.81 10.3728 310.396 7.08682C319.197 4.58982 321.955 4.26083 333.396 4.34783C344.442 4.43083 347.749 4.85083 355.396 7.14183C371.234 11.8878 384.883 19.9678 396.361 31.3938C420.006 54.9288 436.023 95.0778 434.646 127.361C434.385 133.478 433.901 138.92 433.571 139.454C433.242 139.988 430.588 138.133 427.674 135.331C416.579 124.664 393.748 110.519 376.852 103.842C345.439 91.4288 315.52 88.4568 283.896 94.6098C225.314 106.008 180.034 119.586 151.159 134.412C115.637 152.651 88.9779 176.135 65.0829 210.238C31.2269 258.559 11.2119 311.722 2.77588 375.738C0.175883 395.461 -0.855117 439.113 0.803883 459.238C7.76188 543.699 36.9549 616.426 75.3959 645.069C89.7589 655.772 102.346 660.683 120.646 662.725C175.517 668.849 225.412 622.403 266.731 526.738C268.988 521.513 271.861 514.333 273.115 510.782L275.396 504.326L284.273 499.992C289.155 497.608 293.371 495.88 293.643 496.151C295.404 497.913 296.044 517.205 295.022 537.738C293.271 572.893 290.147 588.696 281.482 606.238C276.446 616.433 272.184 622.279 259.58 636.282C248.609 648.471 246.499 652.319 246.446 660.238C246.378 670.295 250.566 677.055 271 699.866C286.374 717.028 290.253 725.136 297.318 754.878C302.698 777.527 310.289 794.029 320.462 805.194C327.39 812.798 333.484 815.559 337.583 812.952C341.366 810.547 341.721 802.27 338.95 781.104C337.879 772.928 336.729 762.413 336.394 757.738C336.059 753.063 335.59 747.1 335.352 744.488C335.114 741.876 335.267 739.738 335.694 739.738C336.486 739.738 346.263 755.416 349.413 761.738C358.948 780.872 379.811 802.478 393.932 807.844C400.401 810.302 401.487 810.238 404.501 807.224C406.741 804.984 406.938 804.195 406.314 799.974C405.929 797.369 404.066 790.738 402.174 785.238C390.606 751.621 385.531 733.533 380.006 706.238C368.027 647.05 368.134 603.939 380.406 545.309C386.232 517.472 391.383 493.655 394.369 480.738C401.576 449.562 410.896 390.668 410.896 376.304C410.896 374.48 411.965 370.568 413.271 367.612C416.554 360.181 419.83 346.548 420.962 335.606C422.656 319.232 418.955 301.195 410.728 285.738C404.906 274.8 400.459 270.738 394.307 270.738C392.568 270.738 390.11 269.347 387.342 266.795C378.085 258.262 364.767 253.596 349.74 253.619C327.094 253.655 305.586 263.53 275.693 287.617C268.784 293.183 262.853 297.738 262.514 297.738C262.174 297.738 261.896 284.253 261.896 267.772C261.896 234.791 260.582 207.352 258.303 192.738C250.255 141.128 217.833 120.378 170.096 136.284C152.292 142.216 128.079 155.201 112.621 167.107C110.572 168.684 108.896 169.716 108.896 169.399C108.896 168.564 121.101 158.993 130.396 152.541C155.418 135.169 192.485 120.636 243.234 108.299C287.203 97.6108 303.924 95.0138 321.87 96.0878C348.79 97.6978 382.455 109.556 407.178 126.134C415.788 131.907 429.896 144.102 429.896 145.77C429.896 147.476 420.229 147.992 409.694 146.849C398.37 145.621 383.908 142.257 372.896 138.291C363.757 134.999 327.855 120.897 325.163 119.542C320.582 117.236 318.83 114.827 319.638 111.942C320.978 107.16 320.466 100.88 318.584 98.9978C315.873 96.2858 306.644 96.6238 300.473 99.6608C289.426 105.098 278.35 120.2 277.682 130.738C277.415 134.942 277.56 135.238 279.884 135.238C282.081 135.238 282.449 134.697 283.035 130.597C283.96 124.128 286.409 119.432 292.107 113.198C297.112 107.721 307.203 101.738 311.433 101.738C314.454 101.738 316.266 104.179 315.514 107.232C315.174 108.61 314.62 110.855 314.283 112.22C312.521 119.354 315.368 121.545 338.896 131.157C379.563 147.772 401.771 153.5 421.963 152.583C426.326 152.385 429.896 152.357 429.896 152.52C429.896 153.682 424.917 162.15 421.55 166.715C412.73 178.67 390.435 197.683 373.245 207.907C342.453 226.222 309.241 238.738 291.432 238.738C284.314 238.738 284.015 238.638 281.043 235.252C277.74 231.491 275.875 226.188 273.141 212.79C271.747 205.957 271.408 199.263 271.451 179.488C271.493 160.894 271.208 154.738 270.308 154.738C268.527 154.738 268.206 156.187 266.803 170.524C265.776 181.029 265.764 186.492 266.744 197.941C269.387 228.832 274.857 242.327 285.55 244.333C307.724 248.493 369.274 222.432 402.078 194.994C411.077 187.467 422.128 176.143 427.021 169.436C442.658 148.003 444.438 117.672 432.286 79.7378C429.685 71.6198 418.77 50.7018 413.431 43.6048C406.939 34.9748 396.157 23.8288 388.896 18.2408C381.753 12.7438 366.954 5.34383 357.706 2.64583C348.568 -0.0201697 323.598 -0.91917 314.896 1.10483ZM431.414 66.7088C431.084 67.2428 434.545 71.9228 439.105 77.1088C460.328 101.245 469.896 128.427 469.896 164.587C469.896 182.015 468.99 189.052 462.413 222.738C454.916 261.139 453.825 268.89 453.194 288.238C452.578 307.126 453.574 317.576 457.48 333.169C461.963 351.07 464.695 357.886 485.361 402.738C498.945 432.22 504.331 445.554 509.335 462.089C515.52 482.526 517.959 496.386 518.511 514.238C519.073 532.396 519.39 534.738 521.29 534.738C523.257 534.738 523.896 530.113 523.896 515.863C523.896 500.916 521.45 484.641 516.514 466.738C510.579 445.214 504.401 429.628 486.249 390.384C465.889 346.365 461.832 333.966 458.878 306.738C456.848 288.022 459.692 261.22 467.897 221.738C474.089 191.943 475.897 178.756 475.89 163.454C475.872 126.593 463.634 94.3018 441.603 72.9878C434.186 65.8128 432.58 64.8228 431.414 66.7088ZM216.342 138.907C239.346 146.585 251.662 168.533 254.966 207.738C255.592 215.163 256.425 239.463 256.817 261.738L257.531 302.238L244.785 314.738C230.271 328.972 214.254 345.956 202.543 359.533C197.109 365.833 194.296 368.411 193.812 367.533C191.852 363.978 180.348 306.014 176.386 279.738C169.103 231.428 171.012 193.241 181.708 173.26C187.518 162.407 198.636 154.162 209.201 152.872C213.704 152.322 214.441 151.919 214.735 149.841C215.067 147.491 214.956 147.455 209.077 147.988C200.875 148.732 190.244 154.375 184.348 161.114C178.743 167.522 173.486 178.11 170.91 188.183C165.074 211.003 165.97 247.752 173.416 290.906C176.129 306.629 184.626 348.526 187.782 361.738L190.768 374.238L187.522 377.738C183.523 382.052 175.245 392.484 166.894 403.738C163.424 408.413 159.33 413.869 157.795 415.862C152.246 423.068 134.036 450.556 125.416 464.738C107.979 493.427 82.4559 547.228 84.6389 550.695C87.5259 555.28 89.9029 551.813 95.9179 534.238C106.228 504.115 129.543 463.302 161.899 418.738C174.112 401.916 190.777 380.729 191.774 380.753C192.116 380.762 194.145 387.85 196.282 396.503C208.852 447.392 222.486 487.208 231.977 500.737C239.013 510.769 246.713 512.88 261.403 508.807C265.233 507.745 268.497 507.005 268.655 507.164C269.189 507.698 256.227 537.134 249.907 549.738C241.098 567.309 235.849 576.435 226.615 590.238C203.411 624.921 181.582 643.988 154.396 653.32C147.563 655.666 144.338 656.131 132.29 656.51C120.245 656.888 116.957 656.643 109.79 654.834C73.9109 645.776 47.7879 615.424 27.3459 559.047C5.95588 500.053 -0.153116 425.861 10.9819 360.289C15.6879 332.575 25.4649 298.279 35.5119 274.238C42.1319 258.399 53.7909 236.631 63.0979 222.738C70.9199 211.061 73.9809 207.529 85.7679 196.58C108.687 175.291 122.815 164.667 142.534 153.893C172.342 137.608 197.279 132.544 216.342 138.907ZM442.447 150.988C442.179 152.226 441.26 163.813 440.405 176.738C438.854 200.166 438.158 206.888 431.498 262.738C424.107 324.719 424.333 356.318 432.404 389.175C436.402 405.453 443.295 421.57 462.155 458.738C481.057 495.99 487.025 511.239 490.305 530.664C493.312 548.481 491.675 567.654 485.59 585.872C482.397 595.429 482.343 598.272 485.402 595.733C487.733 593.798 492.749 579.521 494.376 570.19C495.212 565.397 495.894 556.022 495.892 549.357C495.882 519.69 489.256 499.887 461.224 445.738C436.501 397.984 431.692 379.243 431.714 330.738C431.726 304.138 432.537 292.88 436.903 258.738C442.281 216.677 446.828 171.668 446.853 160.238C446.872 151.946 446.159 148.738 444.298 148.738C443.548 148.738 442.715 149.75 442.447 150.988ZM360.732 260.167C367.801 261.683 377.795 266.456 382.469 270.548L385.542 273.238L384.828 301.238C384.051 331.73 382.971 338.727 377.322 349.892C369.451 365.449 353.212 379.763 327.597 393.722C323.307 396.06 319.519 397.694 319.179 397.354C317.217 395.392 333.516 362.405 342.303 350.556C351.476 338.185 364.035 326.716 373.814 321.779C380.609 318.349 381.704 317.117 379.721 315.135C378.506 313.919 377.551 313.948 372.853 315.342C344.742 323.682 319.662 352.634 306.484 391.954C304.588 397.61 302.772 403.475 302.448 404.988C302.123 406.501 301.366 407.738 300.764 407.738C299.13 407.738 281.961 417.562 277.6 420.993C275.512 422.635 273.518 423.694 273.169 423.344C271.398 421.574 262.918 330.617 262.904 313.238L262.897 305.238L274.146 295.996C310.126 266.439 337.383 255.16 360.732 260.167ZM401.174 279.624C403.105 281.762 406.051 286.374 407.72 289.874C416.359 307.992 418.699 324.136 415.415 342.968C412.826 357.814 412.339 357.33 411.042 338.629C409.171 311.668 404.967 293.506 397.507 280.157C394.351 274.511 396.299 274.228 401.174 279.624ZM396.912 292.55C402.723 307.964 404.742 321.549 405.569 350.822L406.179 372.406L402.35 379.322C380.489 418.805 338.915 462.688 302.487 484.732L298.578 487.098L299.2 464.668C299.767 444.208 301.459 428.102 303.865 420.238C304.37 418.588 305.276 415.325 305.878 412.988C306.48 410.651 307.416 408.738 307.957 408.738C309.79 408.738 332.464 397.018 341.777 391.258C360.189 379.869 373.903 366.707 380.756 353.849C386.814 342.483 389.414 323.069 389.878 285.738L389.958 279.238L392.434 283.238C393.795 285.438 395.81 289.629 396.912 292.55ZM260.776 364.132C261.306 369.69 262.989 386.648 264.517 401.816L267.294 429.394L265 431.816C260.777 436.276 256.719 442.833 257.279 444.293C258.205 446.708 259.511 445.961 263.494 440.738C265.591 437.988 267.47 435.738 267.668 435.738C267.867 435.738 267.921 440.153 267.787 445.55C267.654 450.946 267.876 455.896 268.28 456.55C269.245 458.112 272.571 458.074 273.55 456.488C274.415 455.089 274.275 439.236 273.348 433.569C272.753 429.933 272.815 429.854 280.072 424.96C287.58 419.896 297.046 414.738 298.831 414.738C299.382 414.738 299.558 415.454 299.222 416.33C298.886 417.206 297.619 422.718 296.406 428.58C295.071 435.036 290.756 448.503 285.462 462.738C280.655 475.663 275.526 489.5 274.065 493.488L271.407 500.738L265.303 502.769C256.734 505.621 247.615 506.962 244.597 505.814C234.925 502.137 225.892 483.226 212.003 437.574C207.387 422.404 205.273 414.707 197.986 386.537L195.218 375.835L199.774 370.537C211.552 356.836 233.899 333.004 245.055 322.246L257.396 310.345L258.605 332.186C259.269 344.198 260.247 358.574 260.776 364.132ZM349.151 336.185C344.234 341.381 337.66 349.425 334.544 354.061C328.425 363.163 318.599 383.088 314.833 394.032C312.57 400.608 310.51 403.685 309.227 402.402C308.228 401.403 314.698 384.139 320.424 372.525C326.159 360.893 334.022 349.212 341.592 341.075C346.061 336.271 356.762 326.738 357.684 326.738C357.908 326.738 354.068 330.989 349.151 336.185ZM404.441 391.488C400.337 425.921 392.201 471.001 383.912 505.238C366.268 578.116 362.671 621.902 369.998 674.593C374.504 706.992 384.017 745.571 395.926 779.742C402.368 798.227 403.394 804.738 399.864 804.738C391.146 804.738 370.68 787.365 360.301 771.154C358.511 768.357 354.908 762.057 352.294 757.154C340.531 735.084 331.01 723.714 311.896 708.915C286.352 689.137 282.895 685.171 282.897 675.65C282.898 669.405 285.993 662.078 293.472 650.622C299.625 641.196 304.341 630.865 306.44 622.215C308.977 611.759 309.43 590.898 307.482 574.238C303.818 542.894 299.896 501.708 299.896 494.569C299.896 492.342 300.795 491.306 304.646 489.092C322.853 478.627 347.07 458.288 365.195 438.238C376.036 426.246 393.338 403.68 400.117 392.691C402.471 388.876 404.56 385.751 404.761 385.747C404.962 385.742 404.818 388.325 404.441 391.488ZM293.896 472.589V490.44L286.741 493.601C282.805 495.339 279.394 496.57 279.161 496.336C278.927 496.102 281.198 489.235 284.208 481.075C287.218 472.914 290.516 463.654 291.538 460.495C292.56 457.337 293.509 454.749 293.646 454.745C293.783 454.741 293.896 462.771 293.896 472.589ZM301.512 566.85C303.546 583.858 303.951 590.798 303.489 600.738C302.468 622.656 299.559 631.84 288.029 649.533C279.123 663.202 276.352 670.495 277.234 677.947C278.485 688.507 285.666 696.122 315.34 718.353C317.627 720.067 322.349 724.381 325.833 727.941L332.169 734.413L331.976 743.982C331.869 749.245 332.974 764.409 334.431 777.679C337.943 809.679 337.144 813.121 327.896 805.836C322.784 801.808 312.683 786.184 308.635 776.042C306.702 771.2 303.537 760.244 301.601 751.696C294.952 722.339 290.617 714.148 268.805 689.738C255.031 674.324 251.896 668.867 251.896 660.312C251.896 654.005 254.617 649.311 264.491 638.579C273.817 628.443 282.167 616.983 285.666 609.518C292.529 594.875 296.583 577.288 297.546 557.977C297.91 550.683 298.375 544.884 298.58 545.089C298.785 545.294 300.104 555.086 301.512 566.85Z" fill="black"/>
</svg>
