<svg id="visual" viewBox="0 0 900 120" width="900" height="120" xmlns="http://www.w3.org/2000/svg" xmlns:xlink="http://www.w3.org/1999/xlink" version="1.1"><rect x="0" y="0" width="900" height="120" fill="#faf8f5"></rect><path d="M0 70L25 72.2C50 74.3 100 78.7 150 78.7C200 78.7 250 74.3 300 72.2C350 70 400 70 450 71.8C500 73.7 550 77.3 600 77.3C650 77.3 700 73.7 750 72.7C800 71.7 850 73.3 875 74.2L900 75L900 121L875 121C850 121 800 121 750 121C700 121 650 121 600 121C550 121 500 121 450 121C400 121 350 121 300 121C250 121 200 121 150 121C100 121 50 121 25 121L0 121Z" fill="#C7B59A" stroke-linecap="round" stroke-linejoin="miter"></path></svg>